# xmcd CD database file
# Copyright (C) 1993-1998 Ti Kan
# 
# Track frame offsets:
#     150
#     17470
#     34725
#     52782
#     71097
#     90782
#     113355
#     133720
#     154487
#     167275
# 
# Disc length: 2442 seconds
# 
# Revision: 1
# Processed by: cddbd v1.4b41PL1 Copyright (c) Steve Scherf et al.
# Submitted via: DiscPlay 4.0.4
# 
DISCID=6909880a
DTITLE=Dana Lacroix - Pride
DYEAR=1900
DGENRE=
TTITLE0=Takin my time
TTITLE1=Welcome wind
TTITLE2=Sweet southern man
TTITLE3=Lonesome angel
TTITLE4=Slow train
TTITLE5=Troubled mind
TTITLE6=Lonely rooms
TTITLE7=The walkin song
TTITLE8=Comin home tonight
TTITLE9=Pride
EXTD=
EXTT0=
EXTT1=
EXTT2=
EXTT3=
EXTT4=
EXTT5=
EXTT6=
EXTT7=
EXTT8=
EXTT9=
PLAYORDER=
